/* XPM */
static char * haskell_16_xpm[] = {
"16 16 22 1",
" 	c None",
".	c #626262",
"+	c #636363",
"@	c #959595",
"#	c #949494",
"$	c #606060",
"%	c #5D5D5D",
"&	c #5A5A5A",
"*	c #595959",
"=	c #565656",
"-	c #858585",
";	c #828282",
">	c #868686",
",	c #888888",
"'	c #898989",
")	c #5C5C5C",
"!	c #575757",
"~	c #838383",
"{	c #848484",
"]	c #5B5B5B",
"^	c #878787",
"/	c #585858",
"                ",
"                ",
".++ @##         ",
" +++ @@         ",
" .++ @@#        ",
"  +++ #@@       ",
"   ++. @@ $%%%%%",
"   +++ #@# &&&&*",
"   *==%-;;> ++++",
"   ==&,;;;;'%)))",
"  !=! ~;>{;; ]]]",
" &== >;~  ~;>   ",
" ==&';;^  ^;;,  ",
"]/* ,>^    ^>>  ",
"                ",
"                "};
